<?xml version='1.0' encoding='utf-8'?>
<svg xmlns="http://www.w3.org/2000/svg" id="Laag_1" data-name="Laag 1" viewBox="0 0 207.75 239.4"><defs><style>.cls-1{fill:#84754e;}</style></defs><path class="cls-1" d="M325.15,490.05a22.61,22.61,0,0,1,8,3.49,2.4,2.4,0,0,1,.72,1.33,23,23,0,0,0,4.58,8.87,29,29,0,0,0,3.13,2.94,3.38,3.38,0,0,0,1.16.56c.86.27,1.47-.05,1.55-.95a6.55,6.55,0,0,0-.16-2.69A23.45,23.45,0,0,0,342,499a24.86,24.86,0,0,0-7.08-7.26,25.54,25.54,0,0,0-14-4.48,6.82,6.82,0,0,0-1,0,3,3,0,0,0-.56.16c-.05.61-.15,1.26-.15,1.91,0,6,0,11.89,0,17.84a13.47,13.47,0,0,1-.11,2,4.05,4.05,0,0,1-7.89,0,9.82,9.82,0,0,1-.11-1.72q0-21.72,0-43.45a9.72,9.72,0,0,1,.08-1.43,4,4,0,0,1,8,0,14.39,14.39,0,0,1,.09,1.86v12.38a5.15,5.15,0,0,0,.08,1.42c.09.3.45.7.71.72,1.95.17,3.91.26,5.95.38.17-.39.36-.77.49-1.16,4.69-13.9,14.44-22.22,28.45-25.88A52.46,52.46,0,0,1,371.71,451a49.39,49.39,0,0,1,20.59,5.73,26.86,26.86,0,0,1,8.61,7.07,4.25,4.25,0,0,1,.83,4.3,4,4,0,0,1-6.76,1.41c-4.76-5.86-11.38-8-18.35-9.51a41.67,41.67,0,0,0-10.86-.86c-7.8.41-15.14,2.26-21.48,7.1a29.15,29.15,0,0,0-10,14.13c-.42,1.24-.38,1.39.87,2a33.9,33.9,0,0,1,13.2,11.48,22.21,22.21,0,0,1,3.92,8.72,13,13,0,0,1-.42,7.09A9,9,0,0,1,341,515.3a14.28,14.28,0,0,1-6.34-3.53,30.2,30.2,0,0,1-9.36-17.86A9.17,9.17,0,0,1,325.15,490.05Z" transform="translate(-194.26 -301.22)" /><path class="cls-1" d="M277.69,489.93a19.9,19.9,0,0,1,2.53.77c1.66.75,3.27,1.59,4.91,2.39a2.89,2.89,0,0,1,1.61,2.05,21.68,21.68,0,0,0,4.1,8.16,27.2,27.2,0,0,0,2.8,2.88,5.87,5.87,0,0,0,1.73,1c1,.4,1.56.05,1.71-1a7.35,7.35,0,0,0-.43-3.53,18.2,18.2,0,0,0-2.88-5.12,27.82,27.82,0,0,0-8-7,24.87,24.87,0,0,0-7.57-2.63c-1.58-.32-3.22-.42-4.83-.59a7.71,7.71,0,0,0-1.26.1c0,.7-.15,1.36-.15,2,0,5.9,0,11.8,0,17.7a14.47,14.47,0,0,1-.08,1.87,4,4,0,0,1-8-.07,14.22,14.22,0,0,1-.06-1.73q0-21.36,0-42.74a14.39,14.39,0,0,1,.08-1.86,4,4,0,0,1,7.94-.07,12.81,12.81,0,0,1,.1,1.86c0,4.18,0,8.35,0,12.52,0,.66.08,1.32.12,2l7,.51a9.73,9.73,0,0,0,.46-1c3-8.29,8.46-14.62,15.68-19.51,1.27-.86,2.63-1.57,3.93-2.39a4.1,4.1,0,1,1,4.22,7c-1.36.89-2.8,1.66-4.14,2.59a31,31,0,0,0-11.49,13.87c-.21.53-.36,1.08-.59,1.76.42.25.8.52,1.21.73A34.92,34.92,0,0,1,302,495.08a19.08,19.08,0,0,1,3.35,10,10.93,10.93,0,0,1-1.27,5.83c-2.14,3.78-5.71,5.37-10.13,4.47a13.56,13.56,0,0,1-6.59-3.63,30.19,30.19,0,0,1-9.33-18C277.9,492.55,277.83,491.41,277.69,489.93Z" transform="translate(-194.26 -301.22)" /><path class="cls-1" d="M194.29,485.7c0-7,0-14,0-21a5.37,5.37,0,0,1,1.6-4,4.65,4.65,0,0,1,3.34-1.45c6.43,0,12.88-.3,19.27.13,10.5.7,18.75,5.47,23.41,15.17,6.65,13.84.37,31.49-16.66,36.63a27.26,27.26,0,0,1-7.93,1.19c-5.85,0-11.7-.08-17.55,0a5.42,5.42,0,0,1-5.5-5.53C194.35,499.8,194.29,492.75,194.29,485.7Zm8.93-18.17c-.47,1.24-.52,35.09-.05,36.57.38,0,.8.07,1.23.07,4,0,8,.07,12.07,0a22.86,22.86,0,0,0,8-1.47c6.23-2.51,10.32-7,11.47-13.64A17.22,17.22,0,0,0,229.72,472a19.91,19.91,0,0,0-12.61-4.47c-4.22-.11-8.44,0-12.66,0C204,467.46,203.61,467.51,203.22,467.53Z" transform="translate(-194.26 -301.22)" /><path class="cls-1" d="M298.21,301.22a60.63,60.63,0,1,1-60.71,60.29A60.55,60.55,0,0,1,298.21,301.22ZM298.07,420A58.15,58.15,0,1,0,240,362,58.13,58.13,0,0,0,298.07,420Z" transform="translate(-194.26 -301.22)" /><path class="cls-1" d="M362.85,493.86a7.17,7.17,0,0,0,.87,3.69A10.73,10.73,0,0,0,374,504.14a10.46,10.46,0,0,0,8.34-4.67c.33-.46.59-1,.9-1.46a4.24,4.24,0,0,1,5.55-1.54,4.13,4.13,0,0,1,1.58,5.62c-3.82,6.69-9.46,10.45-17.32,10.33a18.07,18.07,0,0,1-14.34-7.36,20.77,20.77,0,0,1,1.55-27.33,18.5,18.5,0,0,1,26.36-.19,22.3,22.3,0,0,1,6.09,10.9,4.05,4.05,0,0,1-3.56,5.3,12.91,12.91,0,0,1-1.86.12h-24.4Zm19.26-8.5.13-.38a10.83,10.83,0,0,0-9.84-4.58c-3,.23-6.67,2.64-7.41,5Z" transform="translate(-194.26 -301.22)" /><path class="cls-1" d="M250.08,485.74v-21c0-.58,0-1.16,0-1.73a4,4,0,0,1,8-.65,8.24,8.24,0,0,1,.19,1.85q0,21.64,0,43.28a8,8,0,0,1-.17,1.7,4,4,0,0,1-8-.61c0-.57,0-1.15,0-1.72Z" transform="translate(-194.26 -301.22)" /><path class="cls-1" d="M355.25,540.1c-1,.5-1.53,0-2.09-.6l-9.08-9.21c-.78-.78-1.54-1.58-2.33-2.35-.29-.3-.63-.56-1-.86-.53.5-.37,1.06-.38,1.55,0,3.35,0,6.71,0,10.06,0,.52.44,1.5-.52,1.49-.78,0-.43-.93-.44-1.43,0-3.93,0-7.86,0-11.79v-1.24c.93-.6,1.51-.16,2.07.42,2.61,2.68,5.24,5.34,7.86,8q1.76,1.8,3.53,3.58c.33.33.69.62,1,.94.6-.48.42-1,.42-1.54,0-3.36,0-6.71,0-10.07a6.18,6.18,0,0,1,.07-1.14.62.62,0,0,1,.46-.39c.16,0,.35.25.44.44a1.52,1.52,0,0,1,0,.57v12.93A6,6,0,0,1,355.25,540.1Z" transform="translate(-194.26 -301.22)" /><path class="cls-1" d="M317.47,540.62a11.82,11.82,0,0,1-5-.92,6.85,6.85,0,0,1-4.35-6.67,6.94,6.94,0,0,1,4.09-6.85,9.17,9.17,0,0,1,4.14-1,26.5,26.5,0,0,1,5,.35c5.67,1.32,6.79,6.09,5.45,10.31a6.44,6.44,0,0,1-3.81,3.88A12.72,12.72,0,0,1,317.47,540.62Zm-8.24-7.72a6.06,6.06,0,0,0,4.84,6.41,13.4,13.4,0,0,0,6.8.14c3.43-.79,5.26-3,5.29-6.37,0-3.64-1.63-5.81-5.18-6.73a13.21,13.21,0,0,0-6.25-.08C311.06,527.07,309.23,529.31,309.23,532.9Z" transform="translate(-194.26 -301.22)" /><path class="cls-1" d="M368.58,525.67c.15-.1.18-.15.22-.15,3.63-.13,7.28-.46,10.87.24a5.91,5.91,0,0,1,5.1,5.89,12.51,12.51,0,0,1-.16,3.57c-.75,3.36-3,4.69-5.93,5-3.18.28-6.4.1-9.61.11a1.77,1.77,0,0,1-.49-.18Zm1,13.65a11.8,11.8,0,0,0,1.46.16c2.3,0,4.6-.05,6.89-.19,3.83-.25,5.8-2.38,5.85-6.2,0-.24,0-.48,0-.72-.08-3.56-2.08-5.7-5.66-5.93-2.39-.14-4.78-.17-7.17-.19-1.36,0-1.45.1-1.45,1.5q0,5.09,0,10.19C369.48,538.36,369.53,538.78,369.57,539.32Z" transform="translate(-194.26 -301.22)" /><path class="cls-1" d="M242.45,532.39c-.34.64-.92.46-1.4.46-2.44,0-4.89,0-7.34,0-.56,0-1.12.08-1.78.13v6.25a14.77,14.77,0,0,0,1.63.18c2.69,0,5.37,0,8.06,0,.5,0,1,.06,1.85.12a4.87,4.87,0,0,1-.78.72,1.28,1.28,0,0,1-.56,0H231.62a7.09,7.09,0,0,1-.83-.11,14.57,14.57,0,0,1-.17-3.67c0-1.19,0-2.39,0-3.59v-7.25c1.21-.37,7.93-.52,11.48-.3a6,6,0,0,1,1,.23c-.29.81-.88.63-1.35.64-2.64,0-5.28,0-7.92,0-.6,0-1.21.09-1.87.15v5.38c.62.06,1.18.15,1.74.16H241C241.48,532,242,531.86,242.45,532.39Z" transform="translate(-194.26 -301.22)" /><path class="cls-1" d="M255.32,525.41c3.82,0,7.68,0,11.55,0a2.14,2.14,0,0,1,.65.25c-.31.77-.9.59-1.37.6-2.64,0-5.27,0-7.91,0-.61,0-1.21.09-1.88.14v5.39c.62.06,1.18.15,1.74.16,2.44,0,4.88,0,7.33,0a14.62,14.62,0,0,1,1.57.17c-.38.87-1,.68-1.44.68-2.49,0-5,0-7.48,0-.55,0-1.11.1-1.72.16v6.26c.67.05,1.28.14,1.88.15h7.91c.48,0,1.06-.14,1.41.53-.19.12-.34.29-.49.29-3.92,0-7.84,0-11.72,0C255,539.09,255,526.94,255.32,525.41Z" transform="translate(-194.26 -301.22)" /><path class="cls-1" d="M294.87,533.19c-1.49-.39-12.58-.39-14.09,0v6.21c0,.54-.08,1-.92.68,0-.38-.08-.8-.08-1.22,0-4,0-8,0-12.07,0-.46-.29-1.26.48-1.27s.48.78.5,1.23c0,1.63,0,3.25,0,5a9.37,9.37,0,0,0,1.44.22c3.74,0,7.47,0,11.21,0,1.38,0,1.49-.12,1.52-1.46s0-2.49,0-3.74a4.12,4.12,0,0,1,.11-1,.53.53,0,0,1,.4-.31.55.55,0,0,1,.42.28,2.71,2.71,0,0,1,.1.85q0,6.18,0,12.36c0,.44.18,1.15-.45,1.18-.79,0-.55-.75-.57-1.22,0-1.38,0-2.77,0-4.16C295,534.29,294.9,533.76,294.87,533.19Z" transform="translate(-194.26 -301.22)" /><path class="cls-1" d="M218.85,540.06a3.63,3.63,0,0,1-.74.26,88.48,88.48,0,0,1-12.2-.26c-.19-.73.41-1.11.79-1.56q4.59-5.34,9.2-10.67c.31-.36.59-.74.9-1.13-.44-.56-1-.41-1.49-.41-2.54,0-5.08,0-7.63,0-.49,0-1,.14-1.45-.34.21-.73.78-.52,1.2-.52,2.64,0,5.27,0,7.91,0h3.31c.13.84-.43,1.16-.78,1.57q-4.68,5.46-9.38,10.89c-.33.39-.63.79-1.14,1.42.86.07,1.41.15,2,.15,2.69,0,5.37,0,8.06,0a12.09,12.09,0,0,1,1.46.17Z" transform="translate(-194.26 -301.22)" /><path class="cls-1" d="M352,361.86c.13,29.79-24.4,53.87-53.89,53.83a54,54,0,0,1-53.8-54c0-28.31,22.64-53.74,53.86-53.75A53.62,53.62,0,0,1,352,361.86Zm-56.66,46.88c.36-1.25.36-92.74-.05-94.15a10.76,10.76,0,0,0-1.5,0c-2.46.35-4.94.62-7.37,1.13A47.09,47.09,0,0,0,250,354.87a4.81,4.81,0,0,0-.08,2.72l3.73.17v7.89l-4,.24a47.58,47.58,0,0,0,16,31.41C275.64,406.21,289.08,409.26,295.31,408.74ZM336,349.56l-1.37.82q-16.18,9.36-32.38,18.7a2.61,2.61,0,0,0-1.55,2.59c0,11.8,0,23.6,0,35.4,0,.56.09,1.13.14,1.82a10.86,10.86,0,0,0,1.52,0,69.56,69.56,0,0,0,7.93-1.21q25.92-6.74,34.34-32.21a14.24,14.24,0,0,0,.3-1.55H336.1A39.09,39.09,0,0,1,326,389.64a38.25,38.25,0,0,1-16.53,9.29v-1.59c0-6.62,0-13.24,0-19.86,0-3-.49-2.19,2.18-3.74q16.5-9.53,33-19c1.37-.79,1.38-.8,1.08-2.21a46.61,46.61,0,0,0-20.71-30.44,47.14,47.14,0,0,0-21.52-7.42,26.11,26.11,0,0,0-2.67,0c-.05.61-.14,1.12-.14,1.63q0,15.92,0,31.81a13,13,0,0,0,.16,1.46,32.63,32.63,0,0,0,8.59-.11V324.78c3.36.19,10.27,3.68,14.7,7.42A38.44,38.44,0,0,1,336,349.56Z" transform="translate(-194.26 -301.22)" /><path class="cls-1" d="M286.71,399c-1.68-.59-3.18-1.05-4.63-1.66a38.17,38.17,0,0,1-18.94-16.93,4.78,4.78,0,0,1-.62-2.45q0-16.2,0-32.38a4.81,4.81,0,0,1,.61-2.46,38.16,38.16,0,0,1,22-18.08c.45-.14.91-.25,1.3-.36l.21.12a.21.21,0,0,1,.07.12q0,36.54.07,73.09C286.81,398.23,286.76,398.47,286.71,399Z" transform="translate(-194.26 -301.22)" /></svg>